<mxfile host="localhost" modified="2020-05-22T04:47:12.198Z" agent="5.0 (Windows NT 10.0; Win64; x64) AppleWebKit/537.36 (KHTML, like Gecko) Code/1.45.1 Chrome/78.0.3904.130 Electron/7.2.4 Safari/537.36" etag="6bex1xMYKGc2Mp16JnQb" version="13.0.9">
    <diagram id="6hGFLwfOUW9BJ-s0fimq" name="Page-1">
        <mxGraphModel dx="1134" dy="832" grid="1" gridSize="10" guides="1" tooltips="1" connect="1" arrows="1" fold="1" page="1" pageScale="1" pageWidth="827" pageHeight="1169" math="0" shadow="0">
            <root>
                <mxCell id="0"/>
                <mxCell id="1" parent="0"/>
                <mxCell id="6" value="" style="outlineConnect=0;dashed=0;verticalLabelPosition=bottom;verticalAlign=top;align=center;html=1;shape=mxgraph.aws3.ec2;fillColor=#F58534;gradientColor=none;" parent="1" vertex="1">
                    <mxGeometry x="390" y="137" width="76.5" height="93" as="geometry"/>
                </mxCell>
                <mxCell id="7" value="" style="outlineConnect=0;dashed=0;verticalLabelPosition=bottom;verticalAlign=top;align=center;html=1;shape=mxgraph.aws3.api_gateway;fillColor=#D9A741;gradientColor=none;" parent="1" vertex="1">
                    <mxGeometry x="130" y="137" width="76.5" height="93" as="geometry"/>
                </mxCell>
                <mxCell id="8" value="" style="endArrow=classic;html=1;exitX=0.65;exitY=0.5;exitDx=0;exitDy=0;exitPerimeter=0;entryX=0;entryY=0.5;entryDx=0;entryDy=0;entryPerimeter=0;" parent="1" source="7" target="6" edge="1">
                    <mxGeometry width="50" height="50" relative="1" as="geometry">
                        <mxPoint x="210" y="270" as="sourcePoint"/>
                        <mxPoint x="260" y="220" as="targetPoint"/>
                    </mxGeometry>
                </mxCell>
                <mxCell id="9" value="Vertical Flow Layout" style="swimlane;html=1;startSize=20;horizontal=1;childLayout=flowLayout;flowOrientation=north;resizable=0;interRankCellSpacing=50;containerType=tree;rotation=0;" parent="1" vertex="1">
                    <mxGeometry x="330" y="310" width="269" height="329" as="geometry"/>
                </mxCell>
                <mxCell id="10" value="開始" style="whiteSpace=wrap;html=1;rotation=0;" parent="9" vertex="1">
                    <mxGeometry x="98.24747468305833" y="59.77475644174329" width="72.5" height="40" as="geometry"/>
                </mxCell>
                <mxCell id="11" value="Task" style="whiteSpace=wrap;html=1;rotation=0;" parent="9" vertex="1">
                    <mxGeometry x="19.49747468305833" y="149.7747564417433" width="100" height="40" as="geometry"/>
                </mxCell>
                <mxCell id="12" value="" style="html=1;curved=1;noEdgeStyle=1;orthogonal=1;" parent="9" source="10" target="11" edge="1">
                    <mxGeometry relative="1" as="geometry">
                        <Array as="points">
                            <mxPoint x="118.87247468305833" y="111.77475644174329"/>
                            <mxPoint x="69.49747468305833" y="137.7747564417433"/>
                        </Array>
                    </mxGeometry>
                </mxCell>
                <mxCell id="13" value="Task" style="whiteSpace=wrap;html=1;rotation=0;" parent="9" vertex="1">
                    <mxGeometry x="149.49747468305833" y="149.7747564417433" width="100" height="40" as="geometry"/>
                </mxCell>
                <mxCell id="14" value="" style="html=1;curved=1;noEdgeStyle=1;orthogonal=1;" parent="9" source="10" target="13" edge="1">
                    <mxGeometry relative="1" as="geometry">
                        <Array as="points">
                            <mxPoint x="150.12247468305833" y="111.77475644174329"/>
                            <mxPoint x="199.49747468305833" y="137.7747564417433"/>
                        </Array>
                    </mxGeometry>
                </mxCell>
                <mxCell id="15" value="End" style="whiteSpace=wrap;html=1;rotation=0;" parent="9" vertex="1">
                    <mxGeometry x="84.49747468305833" y="239.7747564417433" width="100" height="40" as="geometry"/>
                </mxCell>
                <mxCell id="16" value="" style="html=1;curved=1;noEdgeStyle=1;orthogonal=1;" parent="9" source="11" target="15" edge="1">
                    <mxGeometry relative="1" as="geometry">
                        <Array as="points">
                            <mxPoint x="69.49747468305833" y="201.7747564417433"/>
                            <mxPoint x="111.99747468305833" y="227.7747564417433"/>
                        </Array>
                    </mxGeometry>
                </mxCell>
                <mxCell id="17" value="" style="html=1;curved=1;noEdgeStyle=1;orthogonal=1;" parent="9" source="13" target="15" edge="1">
                    <mxGeometry relative="1" as="geometry">
                        <Array as="points">
                            <mxPoint x="199.49747468305833" y="201.7747564417433"/>
                            <mxPoint x="156.99747468305833" y="227.7747564417433"/>
                        </Array>
                    </mxGeometry>
                </mxCell>
            </root>
        </mxGraphModel>
    </diagram>
</mxfile>